<svg width="26" height="20" viewBox="0 0 26 20" fill="none" xmlns="http://www.w3.org/2000/svg">
<path d="M22.9608 4.16341V3.80773C22.9608 2.17273 21.6306 0.842514 19.9956 0.842514H2.96522C1.33016 0.842565 0 2.17273 0 3.80773V4.16341H22.9608Z" fill="#B1B1B1"/>
<path d="M13.5651 13.7017C13.5651 12.1636 14.0598 10.7017 14.9731 9.49684H0V13.6331C0 15.2681 1.33016 16.5983 2.96522 16.5983H14.1911C13.7813 15.7007 13.5651 14.7179 13.5651 13.7017ZM11.4804 12.803H8.92125V11.2796H11.4804V12.803ZM3.41545 11.2796H7.39781V12.803H3.41545V11.2796Z" fill="#B1B1B1"/>
<path d="M16.5547 7.97343C17.7165 7.16058 19.0967 6.72264 20.5443 6.72264C21.3822 6.72264 22.1973 6.86975 22.9608 7.15093V5.6869H0V7.97343H16.5547Z" fill="#B1B1B1"/>
<path d="M26 13.7017C26 10.6886 23.5573 8.24606 20.5442 8.24606C17.5311 8.24606 15.0885 10.6886 15.0885 13.7017C15.0885 16.7149 17.5311 19.1574 20.5442 19.1574C23.5573 19.1574 26 16.7149 26 13.7017ZM21.2796 16.6163V17.2363H20.5179V17.2364V17.2363H19.7562V16.6209C19.2957 16.465 18.9189 16.1906 18.5509 15.9215L19.4503 14.6918C19.9446 15.0534 20.1976 15.2272 20.5442 15.2272C20.7402 15.2272 20.8989 15.1339 20.9585 14.9837C21.0305 14.8019 20.9287 14.6344 20.6861 14.5357C20.6861 14.5357 19.5973 14.1725 19.0939 13.6593C18.6715 13.2288 18.5372 12.6219 18.6716 12.0447C18.807 11.4635 19.1994 11.0091 19.7562 10.7821V10.1671H21.2796V10.7566C21.6665 10.8641 21.994 11.0229 22.1823 11.1251L21.4555 12.464C20.9736 12.2024 20.5303 12.1239 20.3577 12.1829C20.1903 12.2401 20.1648 12.3492 20.1552 12.3904C20.1417 12.4486 20.1344 12.538 20.2276 12.6418C20.3172 12.7417 21.2605 13.1247 21.2605 13.1247C22.2782 13.539 22.7572 14.5795 22.3747 15.5449C22.176 16.0467 21.776 16.4267 21.2796 16.6163Z" fill="#B1B1B1"/>

</svg>
