<svg width="70" height="70" viewBox="0 0 70 70" fill="none" xmlns="http://www.w3.org/2000/svg">
<circle cx="35" cy="35" r="35" fill="#FC7900" fill-opacity="0.2"/>
<path d="M33.3333 20.6667H21.6666C20.7825 20.6667 19.9347 21.0179 19.3096 21.643C18.6844 22.2681 18.3333 23.1159 18.3333 24V47.3333C18.3333 48.2174 18.6844 49.0652 19.3096 49.6904C19.9347 50.3155 20.7825 50.6667 21.6666 50.6667H44.9999C45.884 50.6667 46.7318 50.3155 47.3569 49.6904C47.9821 49.0652 48.3333 48.2174 48.3333 47.3333V35.6667M45.8333 18.1667C46.4963 17.5036 47.3956 17.1311 48.3333 17.1311C49.2709 17.1311 50.1702 17.5036 50.8333 18.1667C51.4963 18.8297 51.8688 19.729 51.8688 20.6667C51.8688 21.6043 51.4963 22.5036 50.8333 23.1667L34.9999 39L28.3333 40.6667L29.9999 34L45.8333 18.1667Z" stroke="#FC7900" stroke-width="4" stroke-linecap="round" stroke-linejoin="round"/>
</svg>
