<svg width="22" height="22" viewBox="0 0 22 22" fill="none" xmlns="http://www.w3.org/2000/svg">
<g opacity="0.5">
<path d="M19.25 3.3H2.74998C1.58123 3.3 0.584351 4.2625 0.584351 5.46562V16.6031C0.584351 17.7719 1.54685 18.7687 2.74998 18.7687H19.25C20.4187 18.7687 21.4156 17.8062 21.4156 16.6031V5.43125C21.4156 4.2625 20.4187 3.3 19.25 3.3ZM19.25 4.84687C19.2843 4.84687 19.3187 4.84687 19.3531 4.84687L11 10.2094L2.64685 4.84687C2.68123 4.84687 2.7156 4.84687 2.74998 4.84687H19.25ZM19.25 17.1531H2.74998C2.40623 17.1531 2.13123 16.8781 2.13123 16.5344V6.35937L10.175 11.5156C10.4156 11.6875 10.6906 11.7562 10.9656 11.7562C11.2406 11.7562 11.5156 11.6875 11.7562 11.5156L19.8 6.35937V16.5687C19.8687 16.9125 19.5937 17.1531 19.25 17.1531Z" fill="#64748B"/>
</g>
</svg>
