<svg width="70" height="70" viewBox="0 0 70 70" fill="none" xmlns="http://www.w3.org/2000/svg">
<circle cx="35" cy="35" r="35" fill="#16CE12" fill-opacity="0.2"/>
<path d="M38.3334 15.3333H25.0001C24.116 15.3333 23.2682 15.6845 22.6431 16.3096C22.0179 16.9348 21.6667 17.7826 21.6667 18.6667V45.3333C21.6667 46.2174 22.0179 47.0652 22.6431 47.6904C23.2682 48.3155 24.116 48.6667 25.0001 48.6667H45.0001C45.8841 48.6667 46.732 48.3155 47.3571 47.6904C47.9822 47.0652 48.3334 46.2174 48.3334 45.3333V25.3333M38.3334 15.3333L48.3334 25.3333M38.3334 15.3333V25.3333H48.3334M35.0001 42V32M30.0001 37H40.0001" stroke="#16CE12" stroke-width="4" stroke-linecap="round" stroke-linejoin="round"/>
</svg>
