<svg width="22" height="22" viewBox="0 0 22 22" fill="none" xmlns="http://www.w3.org/2000/svg">
<g opacity="0.5">
<path d="M16.1563 6.80625V5.9125C16.1563 3.1625 14.0938 0.825001 11.4813 0.618751C10.0375 0.481251 8.59377 0.996876 7.52815 1.95938C6.46252 2.92188 5.84377 4.29688 5.84377 5.70625V6.80625C3.85002 7.18438 2.33752 8.9375 2.33752 11.0688V17.2906C2.33752 19.5594 4.19377 21.3813 6.42815 21.3813H15.5031C17.7719 21.3813 19.6282 19.525 19.6282 17.2563V11C19.6625 8.9375 18.15 7.21875 16.1563 6.80625ZM8.5594 3.09375C9.31565 2.40625 10.3125 2.0625 11.3438 2.16563C13.1657 2.3375 14.6094 3.9875 14.6094 5.9125V6.70313H7.39065V5.67188C7.39065 4.70938 7.80315 3.78125 8.5594 3.09375ZM18.1157 17.2906C18.1157 18.7 16.9469 19.8688 15.5375 19.8688H6.46252C5.05315 19.8688 3.91877 18.7344 3.91877 17.325V11.0688C3.91877 9.52188 5.15627 8.28438 6.70315 8.28438H15.2969C16.8438 8.28438 18.1157 9.52188 18.1157 11V17.2906Z" fill="#64748B"/>
<path d="M11 11.8594C10.5875 11.8594 10.2094 12.2031 10.2094 12.65V16.2594C10.2094 16.6719 10.5532 17.05 11 17.05C11.4125 17.05 11.7907 16.7063 11.7907 16.2594V12.6156C11.7907 12.2031 11.4125 11.8594 11 11.8594Z" fill="#64748B"/>
</g>
</svg>
